<svg width="94" height="54" viewBox="0 0 94 54" fill="none" xmlns="http://www.w3.org/2000/svg">
<rect x="2" y="2" width="90" height="50" rx="6" stroke="#396AE7" stroke-width="4"/>
<path d="M82.0018 9.56006C83.2555 10.8136 83.9599 12.5138 83.96 14.2866C83.9601 16.0595 83.2559 17.7597 82.0024 19.0134L82.0018 19.014" stroke="#396AE7" stroke-width="4" stroke-linecap="round" stroke-linejoin="round"/>
<path d="M77.2517 11.9233C78.5564 13.2289 78.5564 15.3447 77.2517 16.6503" stroke="#396AE7" stroke-width="4" stroke-linecap="round" stroke-linejoin="round"/>
<path d="M26.0952 36.2227C27.1499 36.2227 27.7827 35.5781 27.7827 34.4531V24.9258H27.8882L35.2241 35.2031C35.7632 35.9531 36.2319 36.2227 36.9937 36.2227C38.1069 36.2227 38.728 35.6016 38.728 34.5V20.6367C38.728 19.5 38.1069 18.8555 37.0405 18.8555C35.9741 18.8555 35.3413 19.5 35.3413 20.6367V30.1055H35.2476L27.9351 19.8867C27.396 19.1484 26.9038 18.8555 26.1772 18.8555C25.0522 18.8555 24.396 19.5 24.396 20.625V34.4531C24.396 35.5781 25.0288 36.2227 26.0952 36.2227ZM43.3218 36.2227C44.4351 36.2227 45.0913 35.543 45.0913 34.3828V29.3438H50.6577C51.5835 29.3438 52.1694 28.8164 52.1694 27.9375C52.1694 27.0703 51.5718 26.543 50.6577 26.543H45.0913V22.0195H51.2319C52.1929 22.0195 52.8374 21.4688 52.8374 20.5547C52.8374 19.6406 52.2046 19.0898 51.2319 19.0898H43.3218C42.2085 19.0898 41.5522 19.7695 41.5522 20.9297V34.3828C41.5522 35.543 42.2085 36.2227 43.3218 36.2227ZM62.2593 36.2812C65.4585 36.2812 67.978 34.8398 69.0327 32.4961C69.2085 32.0859 69.3022 31.7109 69.3022 31.3125C69.3022 30.375 68.646 29.7422 67.6499 29.7422C66.8999 29.7422 66.4546 30.0586 66.0913 30.8555C65.3296 32.5547 63.9937 33.3633 62.2124 33.3633C59.5054 33.3633 57.8062 31.1367 57.8062 27.5273C57.8062 23.9648 59.5288 21.7266 62.2007 21.7266C63.8882 21.7266 65.271 22.5938 66.0444 24.3164C66.4312 25.1367 66.9351 25.4883 67.7319 25.4883C68.6694 25.4883 69.2905 24.8906 69.2905 23.9648C69.2905 23.543 69.1733 23.0859 68.939 22.6406C67.7788 20.2031 65.3296 18.7969 62.1655 18.7969C57.3022 18.7969 54.1968 22.0898 54.1968 27.5391C54.1968 33 57.2437 36.2812 62.2593 36.2812Z" fill="#396AE7"/>
</svg>
